<svg xmlns="http://www.w3.org/2000/svg" viewBox="0 0 16 20" fill="none" x="0px" y="0px">
    <path fill-rule="evenodd" clip-rule="evenodd"
        d="M15 7C15 3.13401 11.866 0 8 0C4.13401 0 1 3.13401 1 7V16H3L5 14L7 16H9L11 14L13 16H15V7ZM13 7.5C13 8.32843 12.3284 9 11.5 9C10.6716 9 10 8.32843 10 7.5C10 6.67157 10.6716 6 11.5 6C12.3284 6 13 6.67157 13 7.5ZM6.5 9C7.32843 9 8 8.32843 8 7.5C8 6.67157 7.32843 6 6.5 6C5.67157 6 5 6.67157 5 7.5C5 8.32843 5.67157 9 6.5 9Z"
        fill="lightgreen"
        />
</svg>