<svg xmlns="http://www.w3.org/2000/svg" version="1.1" viewBox="-5.0 -10.0 110.0 135.0">
 <path d="m82.477 57.773c-1.9766-2.9297-5.2227-4.7422-8.7539-4.8906h-0.085937 0.003906c-2.8242 0.058594-5.5039 1.25-7.4414 3.3047-0.5 0.48828-1.0977 0.85547-1.7578 1.0781-4.7617-20.316-12.918-43.504-33.406-45.645l-0.16016 1.5547c3.4492 0.33594 6.7852 1.3984 9.793 3.1133 1.5742 14.395-0.17578 28.957-5.1211 42.566-0.99609-0.10156-1.9297-0.53516-2.6523-1.2266-1.8594-1.9922-4.457-3.1328-7.1797-3.1562-3.3672 0.14062-6.4688 1.875-8.3516 4.668-2.2852 3.332-3.4883 7.2852-3.4531 11.324 0.039063 4.0352 1.3125 7.9648 3.6523 11.258 1.9219 2.7344 5.0156 4.4062 8.3555 4.5156h0.19531c1.4531-0.007812 2.8867 0.35156 4.1641 1.043 5.832 3.1094 13.914-0.66406 18.027-8.3906 0.12891-0.23828 0.23828-0.48047 0.35156-0.72266-2.7305-5.6445-2.9297-11.875-0.55078-16.461h0.003906c-0.77734-1.0078-1.7578-1.8438-2.8789-2.4531-2.4297-1.2266-5.2539-1.418-7.8242-0.51953-0.058594 0.019531-0.12109 0.011719-0.17969 0.027344 4.7188-13.27 6.457-27.418 5.0938-41.438 9.0508 6.1641 15.613 19.152 20.574 40.211-0.46875 0.003906-0.9375-0.0625-1.3867-0.19922-2.6914-0.9375-5.6523-0.74219-8.1953 0.54687-1.6992 0.92188-3.0898 2.3203-4.0078 4.0195-2.4375 4.3555-2.2383 10.492 0.51953 16.016l0.11328 0.24219c0.046875 0.09375 0.089844 0.19141 0.14062 0.28516h0.003906c1.9258 3.7734 5.0273 6.8242 8.8359 8.6836 3.1367 1.6289 6.8594 1.668 10.027 0.10938 1.3359-0.75781 2.8555-1.1367 4.3906-1.0977h0.089843c6.9492 0 12.578-7.3867 12.66-16.516h0.003906c0.10938-4.2383-1.1562-8.3984-3.6133-11.852zm-62.934 8.9297-1.1719-0.050781h0.003906c0.097656-3.1367 1.5742-6.0703 4.0391-8.0117l0.75391 0.89453c-2.207 1.7383-3.5312 4.3594-3.625 7.168zm33.324 3.4922-1.1523 0.23047v-0.003906c-0.64453-3.0703 0.097656-6.2695 2.0312-8.7383l0.94531 0.69141c-1.7344 2.207-2.4023 5.0703-1.8242 7.8203z" fill="#ff3347"/>
</svg>