<svg xmlns="http://www.w3.org/2000/svg" version="1.1" viewBox="-5.0 -10.0 110.0 135.0">
 <g fill="#5b43f7">
  <path d="m26.594 55.625 0.0625 0.035156c0.41016 0.24219 0.83594 0.45312 1.2734 0.63672 0.027343 0.011719 0.058593 0.019531 0.089843 0.03125 0.40625 0.16797 0.82031 0.30859 1.2461 0.42578 0.0625 0.015625 0.125 0.027344 0.18359 0.042969 0.39844 0.10156 0.80078 0.1875 1.2109 0.25 0.066406 0.007813 0.12891 0.015625 0.19531 0.023437 0.40625 0.050782 0.81641 0.085938 1.2305 0.097657h0.19922c0.41016 0.003906 0.81641-0.015625 1.2227-0.054688 0.074219-0.007812 0.14453-0.015625 0.21875-0.023437 0.39063-0.046875 0.78125-0.11328 1.1641-0.19531 0.089844-0.019531 0.17969-0.042969 0.26953-0.0625 0.35156-0.085937 0.69922-0.19531 1.043-0.31641 0.12109-0.042969 0.24219-0.085937 0.35938-0.13281 0.12109-0.046874 0.23828-0.10937 0.35547-0.16016-0.15234-0.41406-0.27344-0.83984-0.37891-1.2695-0.027343-0.10938-0.050781-0.21875-0.078124-0.32422-0.097657-0.4375-0.17969-0.87891-0.23047-1.3281-0.066407-0.46484-0.10156-0.99609-0.10156-1.5898 0-0.35156 0.015625-0.70313 0.042969-1.0508 0.007813-0.11328 0.023437-0.22656 0.035156-0.33984 0.023438-0.23437 0.050781-0.46484 0.085938-0.69531 0.019531-0.13281 0.046875-0.26172 0.070312-0.39453 0.039063-0.21094 0.082031-0.41797 0.12891-0.625 0.03125-0.13672 0.066406-0.26953 0.10547-0.40625 0.054688-0.19922 0.11328-0.39844 0.17578-0.59375 0.042968-0.13281 0.085937-0.26562 0.13281-0.39844 0.070312-0.19922 0.14844-0.39453 0.23047-0.58984 0.050781-0.125 0.10156-0.25 0.15625-0.37109 0.09375-0.21094 0.19922-0.41797 0.30859-0.625 0.050782-0.10156 0.097657-0.20312 0.15234-0.30078 0.16406-0.29687 0.33984-0.59375 0.52734-0.87891-0.015625-0.007812-0.027344-0.019531-0.042969-0.027344-0.10938-0.066406-0.20703-0.14453-0.3125-0.21484-0.21484-0.14453-0.42969-0.29297-0.63672-0.44922-0.125-0.097656-0.24219-0.19922-0.36719-0.29688-0.17578-0.14453-0.35156-0.29297-0.51953-0.44531-0.12109-0.11328-0.23828-0.22656-0.35547-0.34375-0.16016-0.15625-0.3125-0.31641-0.46484-0.47656-0.11328-0.12109-0.22266-0.24609-0.32812-0.37109-0.14453-0.16797-0.28516-0.34375-0.41797-0.51953-0.097657-0.12891-0.19922-0.25781-0.29297-0.39062-0.13281-0.1875-0.26172-0.38281-0.38281-0.57812-0.082031-0.12891-0.16797-0.25781-0.24609-0.39062-0.12891-0.22266-0.25-0.44922-0.36719-0.67969-0.058594-0.11719-0.125-0.23047-0.17969-0.34766-0.16797-0.35156-0.32031-0.71094-0.45703-1.0781-0.35547-0.96875-0.59375-1.9531-0.71484-2.9375-0.015624-0.11328-0.027343-0.22656-0.042968-0.33984-6.1641 0.10156-11.145 5.1484-11.145 11.336 0.011719 3.9766 2.1484 7.707 5.5859 9.7344z"/>
  <path d="m57.902 49.5c0.76562 0.38672 1.5859 0.6875 2.4492 0.90234 0.84375 0.20703 1.7305 0.3125 2.6406 0.3125 3.4102 0 6.6055-1.5117 8.7734-4.1523 1.6602-2.0195 2.5742-4.5742 2.5742-7.1953 0-6.25-5.0898-11.336-11.344-11.336-1.9141 0-3.7969 0.48438-5.4531 1.3984l-0.15625 0.089843c-3.5352 2.0156-5.7305 5.7852-5.7305 9.8477 0 0.046874 0.003906 0.085937 0.003906 0.12891 0.003906 0.44922 0.03125 0.89062 0.09375 1.3125 0.10547 0.85156 0.30859 1.6875 0.60938 2.5078l0.082031 0.20703c0.875 2.2227 2.4219 4.0859 4.4062 5.3633 0.33594 0.22656 0.6875 0.42969 1.0508 0.61328z"/>
  <path d="m28.777 74.867c1.207 0.76562 2.5508 1.2773 3.9453 1.543 0.79688 0.14844 1.6055 0.22266 2.4219 0.20312h0.011719c0.32031-0.007812 0.64453-0.03125 0.96875-0.070312 0.85156-0.097657 1.6719-0.28516 2.4375-0.55859 0.18359-0.0625 0.33984-0.125 0.5-0.1875h0.003906c0.035156-0.015625 0.066406-0.03125 0.10547-0.042969-0.015625-0.050781-0.027344-0.10547-0.042969-0.16016-0.039062-0.125-0.070312-0.24609-0.10156-0.37109-0.066406-0.24609-0.125-0.49609-0.17969-0.74609-0.027344-0.13281-0.054687-0.26562-0.078125-0.40234-0.046875-0.26172-0.082031-0.52344-0.10938-0.78516-0.011718-0.12109-0.03125-0.23828-0.039062-0.35937-0.03125-0.38281-0.054688-0.76563-0.054688-1.1562 0-0.44922 0.027344-0.89453 0.070313-1.3359 0.015625-0.14453 0.042969-0.28516 0.0625-0.42969 0.039062-0.29687 0.082031-0.58984 0.14062-0.88281 0.035156-0.16797 0.078125-0.33203 0.11719-0.5 0.0625-0.26172 0.13281-0.52344 0.21094-0.78125 0.054687-0.17188 0.11328-0.33984 0.17188-0.50781 0.085937-0.24609 0.18359-0.49219 0.28516-0.73438 0.070312-0.16797 0.14062-0.33203 0.21875-0.49219 0.11328-0.23828 0.23438-0.47656 0.36328-0.70703 0.082031-0.15234 0.16797-0.30859 0.25781-0.45703 0.14453-0.24219 0.30078-0.47266 0.46094-0.70703 0.089844-0.13281 0.17578-0.26562 0.26953-0.39453 0.19922-0.26953 0.41797-0.53125 0.64063-0.78516 0.066406-0.078125 0.12891-0.16016 0.19922-0.23828 0.011719-0.011718 0.019532-0.023437 0.03125-0.035156-0.023437-0.015625-0.042968-0.035156-0.066406-0.050781-0.38672-0.26562-0.76172-0.54688-1.1172-0.85156-0.050781-0.042968-0.10547-0.085937-0.15625-0.13281-0.38281-0.33203-0.74609-0.68359-1.0859-1.0586-0.015625-0.015625-0.03125-0.035156-0.042969-0.050781-0.31641-0.35156-0.61328-0.71875-0.89062-1.1016-0.050781-0.066406-0.097656-0.13672-0.14844-0.20312-0.28516-0.41016-0.55469-0.83203-0.79688-1.2734 0-0.003906-0.003907-0.003906-0.003907-0.007812-0.085937 0.039062-0.17578 0.0625-0.26172 0.097656-0.25781 0.10938-0.52344 0.20312-0.78906 0.29688-0.20312 0.070312-0.40234 0.13281-0.60547 0.19141-0.33203 0.097656-0.66406 0.17969-1.0039 0.25-0.11328 0.023437-0.22656 0.042969-0.33984 0.0625-0.78906 0.14453-1.5859 0.24219-2.3945 0.24219-2.1016 0-4.1641-0.49609-6.0117-1.4375-1.8438 2.0781-2.8516 4.7227-2.8516 7.5273-0.007812 3.9102 1.9688 7.4961 5.2773 9.582z"/>
  <path d="m53.75 56.766c0.027344-0.24219 0.054688-0.48047 0.09375-0.71875 0.023438-0.13672 0.050781-0.26953 0.078125-0.40625 0.042969-0.21875 0.089844-0.43359 0.14453-0.65234 0.035156-0.14062 0.074219-0.27734 0.11328-0.41797 0.058593-0.21094 0.125-0.41797 0.19531-0.625 0.046875-0.13672 0.09375-0.26953 0.14062-0.40625 0.078125-0.21094 0.16406-0.41797 0.25391-0.625 0.054688-0.12109 0.10547-0.24609 0.16016-0.36719 0.10937-0.23047 0.22656-0.45703 0.34766-0.67969 0.050781-0.089844 0.09375-0.18359 0.14453-0.27344 0.17578-0.30469 0.35938-0.60547 0.5625-0.89844-0.007813-0.003906-0.011719-0.007812-0.015625-0.011718-0.046875-0.027344-0.089844-0.0625-0.13281-0.089844-0.26563-0.16797-0.52344-0.34375-0.77344-0.53125-0.097656-0.070312-0.19141-0.14844-0.28516-0.22266-0.20312-0.15625-0.39844-0.32031-0.58984-0.48828-0.089844-0.078124-0.17969-0.15625-0.26562-0.23828-0.23047-0.21484-0.45312-0.4375-0.66797-0.66797l-0.10547-0.10547c-0.24219-0.26562-0.47266-0.54688-0.69531-0.83203-0.066406-0.085937-0.12891-0.17578-0.19141-0.26172-0.15625-0.21094-0.30469-0.42578-0.44531-0.64844-0.066406-0.10156-0.13281-0.20312-0.19531-0.30859-0.14453-0.23828-0.28125-0.48437-0.41406-0.73437-0.042969-0.078126-0.085937-0.15625-0.12891-0.23828-0.011719-0.019531-0.023437-0.042968-0.035156-0.0625-0.058594 0.027344-0.11719 0.046875-0.17578 0.074219-0.24609 0.10938-0.49219 0.21094-0.74219 0.30859-0.066406 0.027343-0.13672 0.050781-0.20312 0.074219-1.4375 0.51562-2.9609 0.78906-4.5039 0.78906-0.12891 0-0.25-0.019531-0.37891-0.023438-0.31641-0.007812-0.62891-0.027343-0.9375-0.054687-0.15625-0.015625-0.30859-0.03125-0.46094-0.050781-0.45312-0.058594-0.90234-0.13672-1.3398-0.24219-0.47656-0.11328-0.9375-0.26172-1.3945-0.42578-0.13281-0.046875-0.25781-0.097656-0.38672-0.15234-0.15234-0.0625-0.30859-0.11328-0.46094-0.17969-0.015625 0.023437-0.03125 0.042968-0.046875 0.066406-0.066407 0.097656-0.125 0.19922-0.1875 0.29688-0.097657 0.15625-0.19531 0.3125-0.28125 0.47266-0.058594 0.10547-0.11328 0.21484-0.16797 0.32031-0.082031 0.15625-0.16016 0.31641-0.23438 0.47656-0.050781 0.11328-0.097656 0.22266-0.14453 0.33594-0.066406 0.16016-0.13281 0.32422-0.19141 0.48828-0.042969 0.11328-0.082032 0.23047-0.12109 0.34766-0.054688 0.16797-0.10547 0.33594-0.15234 0.50781-0.03125 0.11719-0.0625 0.23047-0.09375 0.34766-0.042969 0.17969-0.078125 0.35938-0.11328 0.53906-0.019531 0.11328-0.042969 0.22266-0.0625 0.33594-0.03125 0.19922-0.054688 0.39844-0.074219 0.60156-0.011719 0.097657-0.023438 0.19141-0.03125 0.28906-0.023438 0.30078-0.035156 0.60156-0.035156 0.90234 0 0.5 0.027344 0.9375 0.085937 1.3359 0.12891 1.1289 0.42188 2.1992 0.87109 3.2109l0.03125 0.066406c1.0195 2.293 2.8047 4.207 5.0234 5.3867l0.003907 0.003906c0.41016 0.21875 0.83203 0.41016 1.2695 0.57422 0.019531 0.007812 0.039062 0.011718 0.054688 0.019531 0.41016 0.15234 0.83203 0.28125 1.2578 0.38281 0.0625 0.015624 0.12109 0.023437 0.18359 0.035156 0.39062 0.085937 0.78516 0.16016 1.1836 0.20703 0.066406 0.007813 0.13672 0.011719 0.20312 0.015625 0.39453 0.039062 0.79297 0.0625 1.1875 0.0625 0.066407 0 0.13672-0.003906 0.20313-0.003906 0.39453-0.007813 0.78906-0.03125 1.1836-0.082032 0.070313-0.007812 0.14453-0.019531 0.21484-0.03125 0.37891-0.054687 0.75781-0.125 1.1289-0.21484 0.085938-0.019531 0.17578-0.042969 0.26172-0.066407 0.34375-0.089843 0.67969-0.20312 1.0117-0.32422 0.11719-0.042969 0.23438-0.089844 0.35156-0.13672 0.12891-0.050781 0.25-0.11719 0.375-0.17578-0.039062-0.12891-0.0625-0.25781-0.097656-0.38672-0.03125-0.125-0.066406-0.24609-0.09375-0.37109-0.10156-0.4375-0.1875-0.875-0.23828-1.3125-0.074219-0.55078-0.11328-1.1289-0.11328-1.7031 0-0.36328 0.019532-0.72266 0.046876-1.082 0.007812-0.10938 0.023437-0.22656 0.039062-0.34375z"/>
  <path d="m34.086 33.562c0.007812 0.34375 0.035156 0.69141 0.085937 1.0664 0.10547 0.84766 0.30859 1.6836 0.60938 2.5039 0.98438 2.6406 2.9062 4.8125 5.4102 6.1133l0.003906 0.003906c0.80078 0.42188 1.668 0.74219 2.5742 0.96094 0.32031 0.078124 0.64844 0.14062 0.98047 0.19141 0.10547 0.015625 0.21484 0.023437 0.32031 0.035156 0.23047 0.027344 0.45703 0.050781 0.69141 0.066406 0.11719 0.007813 0.23438 0.003906 0.35156 0.007813 0.22656 0.003906 0.45312 0.007812 0.68359 0 0.11328-0.003907 0.22266-0.011719 0.33594-0.019531 0.23828-0.015626 0.47656-0.035157 0.71094-0.066407 0.10156-0.011719 0.20312-0.027343 0.30469-0.042969 0.25-0.039062 0.49609-0.085937 0.74609-0.14062 0.089844-0.019532 0.17969-0.039063 0.26562-0.0625 0.25391-0.0625 0.50391-0.13672 0.75391-0.21484 0.082032-0.027344 0.16797-0.050782 0.25-0.082032 0.23828-0.082031 0.47656-0.17578 0.71094-0.27734 0.09375-0.039063 0.1875-0.078125 0.27734-0.11719 0.050781-0.023437 0.09375-0.050781 0.14453-0.074219-0.058594-0.19141-0.10156-0.38281-0.15234-0.57422-0.035156-0.13672-0.078125-0.27344-0.10938-0.41016-0.10547-0.44531-0.19141-0.89453-0.24609-1.3477-0.074218-0.51172-0.11328-1.0703-0.11328-1.6328v-0.070313c0-2.2227 0.56641-4.3672 1.582-6.2695 0.011719-0.019531 0.019532-0.039063 0.03125-0.058594 0.24609-0.45312 0.51563-0.89062 0.8125-1.3164 0.023438-0.035156 0.046876-0.066406 0.074219-0.10156 0.29297-0.41016 0.60547-0.80469 0.94531-1.1758 0.03125-0.035156 0.066406-0.070312 0.097656-0.10547 0.33984-0.37109 0.70312-0.72656 1.0859-1.0586 0.027343-0.023438 0.058593-0.046875 0.085937-0.070313 0.39844-0.33984 0.8125-0.65625 1.2539-0.94922l0.003907-0.003907c-1.8828-3.9297-5.8125-6.4297-10.23-6.4297-1.9258 0-3.8203 0.48828-5.4844 1.4141-3.6094 2-5.8477 5.7969-5.8516 9.9141l0.007813 0.37109c-0.003906 0.007813-0.003906 0.015626-0.003906 0.023438z"/>
  <path d="m72.754 48.445c-0.082031 0.089844-0.17578 0.16406-0.25781 0.25-0.14844 0.15234-0.30078 0.30078-0.45703 0.44531-0.19531 0.17969-0.39453 0.35547-0.59766 0.52344-0.16406 0.13281-0.32812 0.26563-0.49609 0.39453-0.21094 0.15625-0.42969 0.30469-0.64844 0.44922-0.17578 0.11719-0.35156 0.23047-0.53125 0.33594-0.22656 0.13281-0.46094 0.25781-0.69531 0.37891-0.18359 0.09375-0.36719 0.19141-0.55469 0.27734-0.24609 0.11328-0.49609 0.20703-0.75 0.30469-0.1875 0.070312-0.37109 0.14844-0.5625 0.21094-0.26953 0.089844-0.54297 0.16016-0.81641 0.23047-0.18359 0.046875-0.36328 0.10547-0.54688 0.14453-0.30859 0.066406-0.62109 0.11328-0.9375 0.15625-0.15625 0.023437-0.3125 0.054687-0.46875 0.074219-0.47656 0.050781-0.95703 0.078125-1.4375 0.078125-1.0703 0-2.1172-0.125-3.1133-0.37109-0.45312-0.10938-0.89062-0.25-1.3242-0.40234-0.12109-0.042969-0.24219-0.089843-0.35938-0.13672-0.14453-0.054687-0.28906-0.10156-0.42969-0.16406-0.023437 0.03125-0.050781 0.0625-0.070312 0.09375-0.074219 0.10547-0.14453 0.21875-0.21875 0.32812-0.097657 0.14844-0.19531 0.30078-0.28516 0.45312-0.070312 0.11719-0.13281 0.23828-0.19922 0.35547-0.082032 0.15234-0.16406 0.30469-0.23828 0.46094-0.058593 0.125-0.11719 0.24609-0.17187 0.37109-0.070313 0.15625-0.13281 0.31641-0.19531 0.47656-0.046875 0.125-0.09375 0.25391-0.14062 0.37891-0.058594 0.16797-0.10938 0.33594-0.15625 0.50391-0.035156 0.125-0.074219 0.25-0.10547 0.37891-0.042969 0.17969-0.082031 0.35938-0.11719 0.54297-0.023438 0.12109-0.050782 0.24219-0.070313 0.36328-0.035156 0.20312-0.058593 0.41016-0.078125 0.61719-0.011718 0.10156-0.027344 0.20312-0.035156 0.30469-0.023438 0.3125-0.039062 0.625-0.039062 0.94141 0 0.48438 0.03125 0.97266 0.097656 1.4531 0.10156 0.83203 0.30469 1.6602 0.60156 2.4727l0.007813 0.019531c1.3164 3.5547 4.3047 6.1992 7.9844 7.0781l0.070312 0.015625c0.82812 0.19922 1.6914 0.30469 2.5742 0.30469 6.2539 0 11.344-5.0898 11.344-11.344-0.003906-4.043-2.1211-7.7148-5.5742-9.75z"/>
  <path d="m47.641 84.398c-0.058594-0.019532-0.11328-0.035157-0.17188-0.054688-0.41797-0.14844-0.82812-0.31641-1.2266-0.50391-0.066407-0.03125-0.13281-0.0625-0.19531-0.09375-0.39844-0.19531-0.78906-0.40625-1.1641-0.64062-0.042968-0.027344-0.082031-0.054688-0.125-0.082031-0.37891-0.23828-0.74609-0.49609-1.0977-0.77344-0.015625-0.011719-0.03125-0.023438-0.046875-0.035156-0.35156-0.27734-0.68359-0.57812-1.0078-0.89062-0.050781-0.050781-0.10547-0.097657-0.15234-0.14844-0.30859-0.30859-0.59766-0.63281-0.875-0.96875-0.046875-0.058593-0.09375-0.11719-0.13672-0.17578-0.27734-0.35156-0.54297-0.71484-0.78516-1.0938-0.015625-0.027344-0.03125-0.054688-0.046875-0.082031-0.23438-0.375-0.44922-0.76562-0.64844-1.1641-0.015626-0.03125-0.035157-0.0625-0.050782-0.09375-0.035156 0.015625-0.074218 0.027344-0.10938 0.042969-0.16406 0.074219-0.37109 0.14844-0.58594 0.22266-0.88672 0.31641-1.8555 0.53516-2.8555 0.65234-0.44922 0.050781-0.89844 0.070313-1.3477 0.074219-0.058594 0-0.11719 0.011718-0.17578 0.011718-0.10156 0-0.19922-0.007812-0.30078-0.011718-0.13672-0.003906-0.27344-0.007813-0.41016-0.015625-0.19531-0.011719-0.38672-0.027344-0.58203-0.042969-0.13281-0.011719-0.26562-0.023438-0.39844-0.042969-0.19531-0.023437-0.39062-0.054687-0.58594-0.089843-0.12891-0.023438-0.25391-0.042969-0.37891-0.066407-0.19922-0.039062-0.39453-0.089843-0.58984-0.13672-0.12109-0.03125-0.24219-0.058593-0.36328-0.089843-0.20312-0.054688-0.40234-0.12109-0.59766-0.1875-0.10938-0.035157-0.22266-0.070313-0.33203-0.10938-0.22266-0.082032-0.44141-0.17188-0.66016-0.26562-0.082031-0.035157-0.16406-0.0625-0.24609-0.10156-0.29297-0.13281-0.58594-0.27344-0.87109-0.42969-0.003906-0.003907-0.011719-0.003907-0.015625-0.007813-1.375 1.918-2.125 4.2344-2.125 6.6055 0 6.2539 5.0859 11.344 11.336 11.344 5.8984 0 10.699-4.4062 11.273-10.18-0.007812 0-0.015625-0.003907-0.023437-0.007813-0.45703-0.097656-0.89453-0.22266-1.3242-0.36719z"/>
  <path d="m62.75 70.816c-0.24219-0.082031-0.48047-0.16016-0.71484-0.25391-0.24609-0.097656-0.48047-0.21094-0.71484-0.32031-0.22266-0.10547-0.44922-0.20313-0.66406-0.32031-0.26172-0.14062-0.50781-0.30078-0.75781-0.45703-0.28516-0.17969-0.56641-0.36719-0.83594-0.56641-0.28125-0.20703-0.5625-0.41797-0.82422-0.64844-0.16797-0.14453-0.32031-0.30469-0.48047-0.46094-0.20312-0.19531-0.41016-0.39453-0.60156-0.60156-0.15625-0.16797-0.29688-0.34766-0.44531-0.52344-0.17969-0.21484-0.35156-0.43359-0.51563-0.66406-0.13281-0.18359-0.26172-0.375-0.38281-0.56641-0.15625-0.24219-0.30469-0.49219-0.44531-0.74609-0.10938-0.19141-0.21484-0.38672-0.3125-0.58594-0.042969-0.085937-0.09375-0.16797-0.13672-0.25781-0.078125 0.035156-0.16406 0.058594-0.24609 0.09375-0.23828 0.10156-0.48438 0.19141-0.72656 0.28125-0.21875 0.078125-0.44141 0.15234-0.66797 0.21875-0.30469 0.089844-0.60938 0.17188-0.92188 0.24219-0.12891 0.027343-0.25781 0.050781-0.38672 0.074218-0.82812 0.16016-1.6641 0.26562-2.5117 0.26562-0.96484 0-1.9219-0.12109-2.8555-0.32812-0.027343-0.003906-0.050781-0.007812-0.078124-0.015625-0.33594-0.074219-0.66016-0.17188-0.98828-0.27344-0.18359-0.054688-0.36719-0.10938-0.54688-0.17188-0.25781-0.09375-0.51172-0.19531-0.76172-0.30469-0.12109-0.050781-0.24609-0.089843-0.36719-0.14453-0.070313 0.070312-0.14062 0.13672-0.21094 0.20703-0.11719 0.125-0.23047 0.25-0.34375 0.37891-0.14063 0.16406-0.27734 0.33203-0.41016 0.50391-0.10156 0.13281-0.20312 0.26953-0.30078 0.40625-0.125 0.17578-0.24219 0.35938-0.35547 0.54297-0.085937 0.14063-0.17578 0.28125-0.25391 0.42969-0.10547 0.19141-0.20312 0.38672-0.29688 0.58203-0.070312 0.14844-0.14453 0.29297-0.21094 0.44531-0.089843 0.20312-0.16406 0.41406-0.24219 0.62109-0.054687 0.14844-0.11328 0.29687-0.16016 0.44922-0.070313 0.22266-0.125 0.44531-0.18359 0.67188-0.035156 0.14453-0.078125 0.28906-0.10938 0.4375-0.050781 0.25-0.085938 0.50781-0.12109 0.76172-0.015625 0.125-0.042968 0.25-0.054687 0.37891-0.039063 0.38281-0.0625 0.77344-0.0625 1.1602 0 1.4414 0.26172 2.832 0.78125 4.1328l0.003906 0.007813c1.2891 3.293 4.043 5.7773 7.3789 6.7461 0.47656 0.13672 0.96484 0.24609 1.4648 0.32031 0.55078 0.085937 1.1094 0.12891 1.7109 0.12891 6.25 0 11.336-5.0859 11.336-11.336 0-0.26953-0.007812-0.53906-0.027344-0.80078-0.15234-0.027343-0.29297-0.089843-0.44141-0.14062z"/>
  <path d="m61.902 15.625c1.8984 6.3828-5.1914 9.6875-5.5039 9.8281l0.81641 1.8086c2.9609-1.332 7.7461-5.1836 6.875-10.875 2.8984 0.87109 6.3984 1.4219 10.621 1.4219 0.94141 0 1.9258-0.027344 2.9414-0.085938l-0.11328-1.9805c-20.371 1.1562-24.551-10.301-24.719-10.789l-1.8789 0.63281c0.125 0.38281 2.3516 6.625 10.961 10.039z"/>
 </g></svg>