<svg xmlns="http://www.w3.org/2000/svg" data-name="Layer 4" viewBox="0 0 128 160" x="0px" y="0px">
    <path
        d="M95.1,53.81c1.67-1.65,1.67-4.34,0-5.99-4.5-4.45-4.31-4.36-5.13-4.8-1.21,3.35-3.14,6.69-6.22,9.05-6.41,4.9-19.51,6.25-27.16,6.04-.95-.02-1.64-.92-1.42-1.84,.09-.39,1.34-5.57,3.78-11.28-24.64,5.33-40.92,31.91-33.82,51.98,.93,2.64,.26,5.61-1.72,7.56-1.85,1.83-1.85,4.81,0,6.65l3.47,3.43c1.87,1.84,4.9,1.85,6.76,0,2-1.98,4.91-2.63,7.58-1.7,12.67,4.4,28.83-.22,40.22-11.48,11.37-11.24,16.03-27.21,11.61-39.72-.9-2.53-.45-5.41,2.05-7.89ZM31.57,91.88c-1.06,0-1.92-.86-1.92-1.92s.86-1.92,1.92-1.92,1.92,.86,1.92,1.92-.86,1.92-1.92,1.92Zm3.39-8.21c-1.06,0-1.92-.86-1.92-1.92s.86-1.92,1.92-1.92,1.92,.86,1.92,1.92-.86,1.92-1.92,1.92Zm5.45,6.16c-1.06,0-1.92-.86-1.92-1.92s.86-1.92,1.92-1.92,1.92,.86,1.92,1.92-.86,1.92-1.92,1.92ZM88.54,28.74c-4.22-.84-13.21-1.9-19.74,2.41-6.68-3.54-12.71-13.54-14.94-17.56,4.69-.98,17.01-3.08,23.98,.09,6.54,2.98,9.62,11.35,10.7,15.06Zm.42,3.16c-.19,6.26-2.04,13.97-7.03,17.79-6.07,4.64-18.57,5.33-23.35,5.42,1.85-6.52,5.47-16.07,10.6-20.47,5.05-4.33,13.32-4.19,19.78-2.73Zm19.57-.03l-12.58,12.58-2.13-2.11,5.92-5.92c-2.86-.05-5.54-.97-7.86-2.73,.07-.94,.19-3.22-.01-4.12,2.78,3.34,7.2,4.66,11.36,3.36l3.19-3.19c1.4-1.4,3.52,.72,2.12,2.12Z"
        fill="#ffff70" />
</svg>